<svg width="45" height="39" viewBox="0 0 45 39" fill="none" xmlns="http://www.w3.org/2000/svg">
<path d="M26.7155 37.9955H18.2844L19.343 33.1989L19.6741 31.7H25.3248L25.6559 33.1989L26.7155 37.9955Z" fill="#666666"/>
<path d="M45 1.9734V29.9812C45 30.9306 44.2368 31.7 43.2952 31.7H25.3249H19.6741H1.70485C0.763216 31.7 0 30.9306 0 29.9812V1.9734C0 1.02408 0.763216 0.254639 1.70485 0.254639H43.2952C44.2368 0.254639 45 1.02408 45 1.9734ZM42.7203 29.4017V5.91556V2.55298H2.27974V5.91556V29.4017H42.7203Z" fill="#B3B3B3"/>
<path d="M25.3248 31.7H19.6741L19.343 33.1989H25.6559L25.3248 31.7Z" fill="#4D4D4D"/>
<path d="M42.7203 2.55298H2.27979V5.91556H42.7203V2.55298Z" fill="#88C5FC"/>
<path d="M42.7203 5.91559H2.27979V29.4017H42.7203V5.91559Z" fill="#E6E6E6"/>
<g opacity="0.23">
<path d="M9.89381 22.374C12.7459 22.374 15.058 20.043 15.058 17.1677C15.058 14.2923 12.7459 11.9613 9.89381 11.9613C7.0417 11.9613 4.72961 14.2923 4.72961 17.1677C4.72961 20.043 7.0417 22.374 9.89381 22.374Z" fill="#B3B3B3"/>
<path d="M22.3197 22.374C25.1718 22.374 27.4839 20.043 27.4839 17.1677C27.4839 14.2923 25.1718 11.9613 22.3197 11.9613C19.4676 11.9613 17.1555 14.2923 17.1555 17.1677C17.1555 20.043 19.4676 22.374 22.3197 22.374Z" fill="#B3B3B3"/>
<path d="M34.7456 22.374C37.5977 22.374 39.9098 20.043 39.9098 17.1677C39.9098 14.2923 37.5977 11.9613 34.7456 11.9613C31.8935 11.9613 29.5814 14.2923 29.5814 17.1677C29.5814 20.043 31.8935 22.374 34.7456 22.374Z" fill="#B3B3B3"/>
</g>
<path d="M30.5674 37.2464H14.432V38.7453H30.5674V37.2464Z" fill="#B3B3B3"/>
<path d="M9.89381 21.5532C12.7459 21.5532 15.058 19.2222 15.058 16.3469C15.058 13.4715 12.7459 11.1405 9.89381 11.1405C7.0417 11.1405 4.72961 13.4715 4.72961 16.3469C4.72961 19.2222 7.0417 21.5532 9.89381 21.5532Z" fill="#F7E88B"/>
<path d="M7.60667 15.8526C7.41141 15.8526 7.22011 15.7727 7.08134 15.6328C6.94258 15.4939 6.86328 15.3 6.86328 15.1032C6.86328 14.9063 6.94258 14.7124 7.08134 14.5735C7.22011 14.4336 7.41141 14.3537 7.60667 14.3537C7.80293 14.3537 7.99423 14.4336 8.133 14.5735C8.27077 14.7124 8.35007 14.9063 8.35007 15.1032C8.35007 15.3 8.27077 15.4939 8.133 15.6328C7.99423 15.7727 7.80293 15.8526 7.60667 15.8526Z" fill="#4D4D4D"/>
<path d="M12.18 15.8526C11.9848 15.8526 11.7935 15.7727 11.6547 15.6328C11.5159 15.4939 11.4366 15.3 11.4366 15.1032C11.4366 14.9053 11.5159 14.7124 11.6547 14.5735C11.7935 14.4336 11.9848 14.3537 12.18 14.3537C12.3763 14.3537 12.5676 14.4336 12.7064 14.5735C12.8441 14.7124 12.9234 14.9053 12.9234 15.1032C12.9234 15.301 12.8441 15.4939 12.7064 15.6328C12.5676 15.7727 12.3763 15.8526 12.18 15.8526Z" fill="#4D4D4D"/>
<path d="M9.89388 18.6252C9.2158 18.6252 8.53763 18.365 8.02142 17.8445C7.88593 17.7079 7.88593 17.4864 8.02142 17.3498C8.15692 17.2132 8.37656 17.2132 8.51206 17.3498C9.27419 18.1181 10.5139 18.118 11.2759 17.3498C11.4114 17.2132 11.631 17.2132 11.7665 17.3498C11.902 17.4864 11.902 17.7079 11.7665 17.8445C11.2501 18.365 10.572 18.6252 9.89388 18.6252Z" fill="#4D4D4D"/>
<path d="M22.3197 21.5532C25.1718 21.5532 27.4839 19.2222 27.4839 16.3469C27.4839 13.4715 25.1718 11.1405 22.3197 11.1405C19.4676 11.1405 17.1555 13.4715 17.1555 16.3469C17.1555 19.2222 19.4676 21.5532 22.3197 21.5532Z" fill="#88C5FC"/>
<path d="M20.0332 15.8526C19.8369 15.8526 19.6456 15.7727 19.5069 15.6328C19.3691 15.4939 19.2898 15.3 19.2898 15.1032C19.2898 14.9053 19.3691 14.7124 19.5069 14.5735C19.6456 14.4336 19.8369 14.3537 20.0332 14.3537C20.2285 14.3537 20.4207 14.4336 20.5585 14.5735C20.6973 14.7124 20.7766 14.9053 20.7766 15.1032C20.7766 15.3 20.6973 15.4939 20.5585 15.6328C20.4207 15.7727 20.2285 15.8526 20.0332 15.8526Z" fill="#4D4D4D"/>
<path d="M24.6066 15.8526C24.4103 15.8526 24.219 15.7727 24.0801 15.6328C23.9424 15.4939 23.8632 15.3 23.8632 15.1032C23.8632 14.9053 23.9425 14.7124 24.0801 14.5735C24.2189 14.4336 24.4102 14.3537 24.6066 14.3537C24.8018 14.3537 24.9941 14.4336 25.1319 14.5735C25.2706 14.7124 25.3499 14.9063 25.3499 15.1032C25.3499 15.3 25.2706 15.4929 25.1319 15.6328C24.9941 15.7727 24.8018 15.8526 24.6066 15.8526Z" fill="#4D4D4D"/>
<path d="M22.3199 16.8569C21.5399 16.8569 20.9065 17.4964 20.9065 18.2818C20.9065 19.0673 21.5399 19.7068 22.3199 19.7068C23.099 19.7068 23.7334 19.0673 23.7334 18.2818C23.7334 17.4964 23.099 16.8569 22.3199 16.8569Z" fill="#4D4D4D"/>
<path opacity="0.23" d="M45 1.9734V29.9812C45 30.9306 44.2368 31.7 43.2952 31.7H19.317L35.5477 0.254639H43.2952C44.2368 0.254639 45 1.02408 45 1.9734Z" fill="#F2F2F2"/>
<path d="M34.7456 21.5532C37.5977 21.5532 39.9098 19.2222 39.9098 16.3469C39.9098 13.4715 37.5977 11.1405 34.7456 11.1405C31.8935 11.1405 29.5814 13.4715 29.5814 16.3469C29.5814 19.2222 31.8935 21.5532 34.7456 21.5532Z" fill="#F9A18A"/>
<path d="M32.4587 15.8526C32.2635 15.8526 32.0712 15.7727 31.9334 15.6328C31.7946 15.4939 31.7153 15.3 31.7153 15.1032C31.7153 14.9063 31.7946 14.7124 31.9334 14.5735C32.0712 14.4336 32.2635 14.3537 32.4587 14.3537C32.655 14.3537 32.8463 14.4336 32.9841 14.5735C33.1228 14.7124 33.2021 14.9063 33.2021 15.1032C33.2021 15.3 33.1228 15.4929 32.9841 15.6328C32.8463 15.7727 32.655 15.8526 32.4587 15.8526Z" fill="#4D4D4D"/>
<path d="M37.032 15.8526C36.8367 15.8526 36.6455 15.7727 36.5066 15.6328C36.368 15.4939 36.2886 15.3 36.2886 15.1032C36.2886 14.9053 36.368 14.7124 36.5066 14.5735C36.6445 14.4336 36.8367 14.3537 37.032 14.3537C37.2282 14.3537 37.4195 14.4336 37.5574 14.5735C37.6961 14.7124 37.7754 14.9053 37.7754 15.1032C37.7754 15.3 37.6961 15.4929 37.5574 15.6328C37.4196 15.7727 37.2273 15.8526 37.032 15.8526Z" fill="#4D4D4D"/>
<path d="M36.3728 18.2713C36.284 18.2713 36.1953 18.2371 36.1275 18.1689C35.7583 17.7967 35.2675 17.5918 34.7456 17.5918C34.2236 17.5918 33.7329 17.7967 33.3638 18.1689C33.2283 18.3055 33.0087 18.3055 32.8732 18.1689C32.7377 18.0323 32.7377 17.8108 32.8732 17.6742C33.3734 17.17 34.0384 16.8923 34.7457 16.8923C35.4531 16.8923 36.1181 17.17 36.6182 17.6742C36.7537 17.8108 36.7537 18.0323 36.6182 18.1689C36.5503 18.2371 36.4616 18.2713 36.3728 18.2713Z" fill="#4D4D4D"/>
<path opacity="0.23" d="M11.8626 0.254639L9.62643 4.58652L8.45385 6.85888L5.88073 11.8433L4.65264 14.2236L2.27974 18.8203L0 23.2371V1.9734C0 1.02408 0.763216 0.254639 1.70485 0.254639H11.8626Z" fill="#F2F2F2"/>
</svg>
